<svg version="1.1" viewBox="0.000000 0.000000 83.003200 51.306300" xmlns="http://www.w3.org/2000/svg" xmlns:xlink="http://www.w3.org/1999/xlink" overflow="hidden"><defs></defs><g id="Layer_2"><g id="arrow"><rect x="1.000000" y="1.000000" rx="1.760940" width="7.043760" height="10.565600" stroke="#CC0099" stroke-width="2.203540" stroke-linecap="butt" stroke-linejoin="round" stroke-opacity="1.000000" fill="none" transform="matrix(-1.000000,0.000000,-0.000000,-1.000000,9.043760,12.565600)"/><path d=" M 57.349998 11.565600 L 57.349998 2.760940 C 57.349998 1.788420 56.561600 1.000020 55.589100 1.000000 C 55.589100 1.000000 55.589100 1.000000 55.589100 1.000000 L 52.067200 1.000000 C 51.094700 0.999978 50.306301 1.788340 50.306301 2.760850 C 50.306301 2.760880 50.306301 2.760910 50.306301 2.760940 L 50.306301 6.282820" stroke="#CC0099" stroke-width="2.203540" stroke-linecap="butt" stroke-linejoin="round" stroke-opacity="1.000000" fill="none"/><path d=" M 32.696899 6.282820 L 32.696899 2.760940 C 32.696899 1.788420 31.908501 1.000020 30.936001 1.000000 C 30.936001 1.000000 30.936001 1.000000 30.936001 1.000000 L 27.414101 1.000000 C 26.441601 0.999978 25.653200 1.788340 25.653099 2.760860 C 25.653099 2.760890 25.653099 2.760910 25.653099 2.760940 L 25.653099 11.565600" stroke="#CC0099" stroke-width="2.203540" stroke-linecap="butt" stroke-linejoin="round" stroke-opacity="1.000000" fill="none"/><rect x="66.154700" y="20.370300" rx="1.760940" width="7.043760" height="10.565600" stroke="#CC0099" stroke-width="2.203540" stroke-linecap="butt" stroke-linejoin="round" stroke-opacity="1.000000" fill="none"/><path d=" M 66.154701 43.262501 L 66.154701 41.501598 C 66.154701 40.529099 66.943100 39.740700 67.915604 39.740700 C 67.915604 39.740700 67.915604 39.740700 67.915703 39.740700 L 71.437599 39.740700 C 72.410103 39.740601 73.198502 40.528999 73.198502 41.501499 C 73.198502 41.501598 73.198502 41.501598 73.198502 41.501598 L 73.198502 48.545300 C 73.198502 49.517899 72.410103 50.306301 71.437599 50.306301 C 71.437599 50.306301 71.437599 50.306301 71.437500 50.306301 L 69.676598 50.306301" stroke="#CC0099" stroke-width="2.203540" stroke-linecap="butt" stroke-linejoin="round" stroke-opacity="1.000000" fill="none"/><line x1="16.848400" y1="1.000000" x2="16.848400" y2="11.565600" stroke="#CC0099" stroke-width="2.203540" stroke-linecap="butt" stroke-linejoin="round" stroke-opacity="1.000000" fill="none"/><line x1="41.501600" y1="1.000000" x2="41.501600" y2="6.282820" stroke="#CC0099" stroke-width="2.203540" stroke-linecap="butt" stroke-linejoin="round" stroke-opacity="1.000000" fill="none"/><line x1="82.003200" y1="20.370300" x2="82.003200" y2="30.936000" stroke="#CC0099" stroke-width="2.203540" stroke-linecap="butt" stroke-linejoin="round" stroke-opacity="1.000000" fill="none"/><line x1="82.003200" y1="39.740700" x2="82.003200" y2="50.306300" stroke="#CC0099" stroke-width="2.203540" stroke-linecap="butt" stroke-linejoin="round" stroke-opacity="1.000000" fill="none"/><rect x="74.959400" y="1.000000" rx="1.760940" width="7.043760" height="10.565600" stroke="#CC0099" stroke-width="2.203540" stroke-linecap="butt" stroke-linejoin="round" stroke-opacity="1.000000" fill="none" transform="matrix(-1.000000,0.000000,-0.000000,-1.000000,156.963000,12.565600)"/><line x1="66.154700" y1="1.000000" x2="66.154700" y2="11.565600" stroke="#CC0099" stroke-width="2.203540" stroke-linecap="butt" stroke-linejoin="round" stroke-opacity="1.000000" fill="none"/><rect x="9.804690" y="20.370300" rx="1.760940" width="7.043760" height="10.565600" stroke="#CC0099" stroke-width="2.203540" stroke-linecap="butt" stroke-linejoin="round" stroke-opacity="1.000000" fill="none" transform="matrix(-1.000000,0.000000,-0.000000,-1.000000,26.653100,51.306300)"/><line x1="1.000000" y1="20.370300" x2="1.000000" y2="30.936000" stroke="#CC0099" stroke-width="2.203540" stroke-linecap="butt" stroke-linejoin="round" stroke-opacity="1.000000" fill="none"/><rect x="1.000000" y="39.740700" rx="1.760940" width="7.043760" height="10.565600" stroke="#CC0099" stroke-width="2.203540" stroke-linecap="butt" stroke-linejoin="round" stroke-opacity="1.000000" fill="none"/><path d=" M 57.349998 46.785999 L 57.349998 48.545399 C 57.349998 49.517899 56.561600 50.306301 55.589100 50.306301 C 55.589100 50.306301 55.589100 50.306301 55.589100 50.306301 L 52.067200 50.306301 C 51.094700 50.306301 50.306301 49.518002 50.306301 48.545502 C 50.306301 48.545399 50.306301 48.545399 50.306301 48.545399 L 50.306301 45.023499" stroke="#CC0099" stroke-width="2.203540" stroke-linecap="butt" stroke-linejoin="round" stroke-opacity="1.000000" fill="none"/><path d=" M 41.501598 45.023499 L 41.501598 48.545300 C 41.501598 49.517899 40.713200 50.306301 39.740700 50.306301 C 39.740700 50.306301 39.740700 50.306301 39.740700 50.306301 L 36.218800 50.306301 C 35.246300 50.306301 34.457901 49.517899 34.457802 48.545399 C 34.457802 48.545399 34.457802 48.545399 34.457802 48.545300 L 34.457802 45.023499" stroke="#CC0099" stroke-width="2.203540" stroke-linecap="butt" stroke-linejoin="round" stroke-opacity="1.000000" fill="none"/><line x1="16.848400" y1="39.740700" x2="16.848400" y2="50.306300" stroke="#CC0099" stroke-width="2.203540" stroke-linecap="butt" stroke-linejoin="round" stroke-opacity="1.000000" fill="none"/><line x1="25.653100" y1="39.740700" x2="25.653100" y2="50.306300" stroke="#CC0099" stroke-width="2.203540" stroke-linecap="butt" stroke-linejoin="round" stroke-opacity="1.000000" fill="none"/><circle cx="41.501600" cy="25.653100" r="15.848400" stroke="#CC0099" stroke-width="2.203540" stroke-linecap="butt" stroke-linejoin="round" stroke-opacity="1.000000" fill="none"/><rect x="41.501600" y="20.370300" rx="1.760940" width="7.043760" height="10.565600" stroke="#CC0099" stroke-width="2.203540" stroke-linecap="butt" stroke-linejoin="round" stroke-opacity="1.000000" fill="none"/><line x1="34.457800" y1="20.370300" x2="34.457800" y2="30.936000" stroke="#CC0099" stroke-width="2.203540" stroke-linecap="butt" stroke-linejoin="round" stroke-opacity="1.000000" fill="none"/><line x1="52.861500" y1="37.013000" x2="66.154700" y2="50.306300" stroke="#CC0099" stroke-width="2.203540" stroke-linecap="butt" stroke-linejoin="round" stroke-opacity="1.000000" fill="none"/></g></g></svg>