<?xml version="1.0" encoding="UTF-8" standalone="no"?><!DOCTYPE svg PUBLIC "-//W3C//DTD SVG 1.1//EN" "http://www.w3.org/Graphics/SVG/1.1/DTD/svg11.dtd"><svg width="100%" height="100%" viewBox="0 0 197 197" version="1.1" xmlns="http://www.w3.org/2000/svg" xmlns:xlink="http://www.w3.org/1999/xlink" xml:space="preserve" xmlns:serif="http://www.serif.com/" style="fill-rule:evenodd;clip-rule:evenodd;stroke-linejoin:round;stroke-miterlimit:1.41421;"><path d="M187.627,86.562c-1.024,-8.201 -4.451,-14.732 -5.89,-17.181c1.041,-17.063 -2.342,-29.911 -10.059,-38.2c-6.016,-6.461 -13.044,-8.289 -16.613,-8.805c-5.443,-11.506 -14.696,-13.732 -20.32,-13.191c-10.53,-9.807 -20.27,-10.04 -26.689,-8.439c-4.233,1.058 -7.547,3.041 -9.603,4.536c-2.055,-1.497 -5.371,-3.478 -9.603,-4.536c-6.419,-1.604 -16.159,-1.37 -26.689,8.439c-5.63,-0.543 -14.879,1.685 -20.32,13.191c-3.569,0.515 -10.597,2.343 -16.613,8.805c-7.719,8.289 -11.1,21.137 -10.059,38.2c-1.439,2.447 -4.864,8.98 -5.89,17.181c-1.159,9.293 0.611,22.398 15.141,33.031c-1.684,9.94 -0.09,27.051 15.785,35.465c-0.659,3.616 -1.096,9.888 2.132,15.249c2.538,4.217 6.731,6.991 12.477,8.259c2.901,4.477 12.901,18.343 25.38,18.343c0.079,0 0.16,0 0.239,-0.002c6.69,-0.096 12.735,-4.05 18.019,-11.771c5.286,7.719 11.331,11.675 18.019,11.771c12.571,0.184 22.7,-13.836 25.62,-18.341c5.746,-1.268 9.94,-4.041 12.477,-8.259c3.229,-5.361 2.79,-11.634 2.132,-15.249c15.877,-8.414 17.471,-25.525 15.787,-35.465c14.531,-10.633 16.302,-23.737 15.14,-33.031Zm-20.833,28.684c-1.2,0.8 -1.768,2.268 -1.418,3.668c0.232,0.928 5.451,22.794 -13.981,31.121c-1.633,0.7 -2.456,2.533 -1.894,4.217c0.024,0.073 2.325,7.38 -0.782,12.537c-1.684,2.799 -4.815,4.598 -9.3,5.345c-1,0.166 -1.874,0.77 -2.386,1.644c-2.669,4.555 -11.494,16.305 -20.325,16.305c-0.049,0 -0.101,0 -0.152,0c-5.311,-0.082 -10.373,-4.465 -15.044,-13.027c-0.599,-1.096 -1.877,-1.778 -3.127,-1.778c-1.25,0 -2.398,0.681 -2.997,1.778c-4.669,8.562 -9.731,12.945 -15.044,13.027c-8.841,0.142 -17.792,-11.723 -20.477,-16.305c-0.512,-0.874 -1.388,-1.478 -2.386,-1.644c-4.471,-0.746 -7.595,-2.536 -9.283,-5.318c-3.145,-5.185 -0.818,-12.501 -0.797,-12.565c0.56,-1.684 -0.261,-3.517 -1.894,-4.217c-19.33,-8.284 -14.205,-30.199 -13.979,-31.121c0.35,-1.399 -0.218,-2.867 -1.418,-3.668c-25.464,-16.976 -9.318,-42.057 -8.622,-43.11c0.42,-0.63 0.618,-1.382 0.565,-2.137c-1.113,-15.563 1.603,-27.02 8.071,-34.057c6.219,-6.765 13.746,-6.939 14.041,-6.943c1.396,0 2.65,-0.85 3.169,-2.145c3.82,-9.547 9.958,-10.911 13.15,-10.911c1.027,0 1.751,0.142 1.99,0.198c1.164,0.29 2.393,-0.049 3.241,-0.898c6.946,-6.943 14.085,-9.61 21.22,-7.934c5.46,1.283 9.015,4.722 9.039,4.746c0.64,0.64 1.509,1 2.413,1l0.13,0c0.905,0 1.773,-0.36 2.413,-1c0.034,-0.034 3.468,-3.357 8.781,-4.685c7.219,-1.804 14.447,0.841 21.478,7.873c0.829,0.831 2.058,1.166 3.209,0.906c1.019,-0.234 10.122,-1.918 15.172,10.706c0.512,1.28 1.768,2.128 3.147,2.145c0.317,0.005 7.844,0.177 14.063,6.943c6.467,7.037 9.182,18.495 8.071,34.057c-0.053,0.754 0.145,1.507 0.565,2.137c0.044,0.065 4.35,6.607 5.434,15.275c1.413,11.309 -3.316,20.675 -14.056,27.835Z" style="fill:#cc0199;fill-rule:nonzero;stroke:#cc0199;stroke-width:1px;"/><path d="M155.851,24.507c-0.597,-1.789 -2.534,-2.753 -4.318,-2.159c-21.227,7.076 -21.472,24.815 -21.472,25.566c0,1.876 1.514,3.389 3.389,3.401c0.009,0 0.017,0 0.024,0c1.865,0 3.388,-1.512 3.413,-3.378c0.009,-0.555 0.377,-13.638 16.804,-19.113c1.789,-0.596 2.755,-2.528 2.16,-4.317Z" style="fill:#cc0199;fill-rule:nonzero;stroke:#cc0199;stroke-width:1px;"/><path d="M171.272,116.014c-1.143,-1.498 -3.282,-1.789 -4.784,-0.645c-5.562,4.238 -10.592,5.748 -14.94,4.495c-7.747,-2.231 -11.65,-12.435 -11.687,-12.539c-0.655,-1.765 -2.62,-2.668 -4.381,-2.012c-1.768,0.652 -2.673,2.616 -2.019,4.384c0.203,0.55 5.1,13.5 16.157,16.715c1.649,0.48 3.33,0.719 5.04,0.719c5.089,0 10.441,-2.118 15.969,-6.333c1.499,-1.142 1.787,-3.286 0.645,-4.784Z" style="fill:#cc0199;fill-rule:nonzero;stroke:#cc0199;stroke-width:1px;"/><path d="M113.561,118.861c-1.331,-1.333 -3.495,-1.333 -4.826,0c-1.333,1.333 -1.333,3.494 0,4.826c11.083,11.083 8.784,21.791 8.666,22.298c-0.444,1.823 0.667,3.662 2.488,4.118c0.276,0.068 0.555,0.102 0.829,0.102c1.529,0 2.922,-1.036 3.309,-2.587c0.151,-0.597 3.498,-14.793 -10.466,-28.757Z" style="fill:#cc0199;fill-rule:nonzero;stroke:#cc0199;stroke-width:1px;"/><path d="M166.519,86.873c-0.642,-1.768 -2.599,-2.683 -4.369,-2.046c-0.691,0.247 -16.966,5.938 -25.61,-5.567c-4.49,-5.975 -6.419,-11.092 -7.97,-15.203c-1.903,-5.043 -3.698,-9.808 -9.665,-10.3c-1.862,-0.157 -3.528,1.242 -3.681,3.121c-0.155,1.877 1.242,3.526 3.121,3.681c1.429,0.116 1.966,0.945 3.837,5.905c1.615,4.279 3.825,10.139 8.9,16.894c5.948,7.916 14.246,9.904 21.088,9.904c6.624,0 11.882,-1.865 12.315,-2.021c1.768,-0.645 2.676,-2.599 2.034,-4.368Z" style="fill:#cc0199;fill-rule:nonzero;stroke:#cc0199;stroke-width:1px;"/><path d="M98.389,6.226c-1.884,0 -3.413,1.529 -3.413,3.413l0,169.047c0,1.884 1.529,3.413 3.413,3.413c1.884,0 3.413,-1.527 3.413,-3.412l0,-169.048c0,-1.884 -1.529,-3.413 -3.413,-3.413Z" style="fill:#cc0199;fill-rule:nonzero;stroke:#cc0199;stroke-width:1px;"/><path d="M123.346,35.632c-0.027,-1.884 -1.521,-3.413 -3.463,-3.364c-1.886,0.027 -3.391,1.579 -3.364,3.463c0.003,0.213 0.189,21.495 -10.453,34.992c-1.167,1.481 -0.915,3.627 0.567,4.794c0.626,0.495 1.37,0.734 2.111,0.734c1.009,0 2.009,-0.445 2.681,-1.3c12.127,-15.378 11.934,-38.348 11.921,-39.319Z" style="fill:#cc0199;fill-rule:nonzero;stroke:#cc0199;stroke-width:1px;"/><path d="M130.285,140.187c-15.046,0 -22.084,20.594 -22.376,21.472c-0.596,1.787 0.369,3.715 2.156,4.314c0.358,0.121 0.724,0.177 1.082,0.177c1.427,0 2.758,-0.901 3.238,-2.33c1.572,-4.675 7.494,-16.807 15.901,-16.807c1.884,0 3.413,-1.529 3.413,-3.413c0,-1.884 -1.53,-3.413 -3.414,-3.413Z" style="fill:#cc0199;fill-rule:nonzero;stroke:#cc0199;stroke-width:1px;"/><path d="M134.13,8.654c-1.509,-1.125 -3.649,-0.812 -4.775,0.701l-8.189,11.003c-1.125,1.51 -0.811,3.649 0.701,4.775c0.611,0.457 1.324,0.676 2.034,0.676c1.043,0 2.072,-0.474 2.741,-1.377l8.189,-11.003c1.125,-1.51 0.811,-3.648 -0.701,-4.775Z" style="fill:#cc0199;fill-rule:nonzero;stroke:#cc0199;stroke-width:1px;"/><path d="M64.251,30.715c-7.528,0 -13.653,6.125 -13.653,13.653c0,7.528 6.125,13.653 13.653,13.653c7.528,0 13.653,-6.125 13.653,-13.653c0,-7.528 -6.125,-13.653 -13.653,-13.653Zm0,20.48c-3.765,0 -6.827,-3.062 -6.827,-6.827c0,-3.765 3.062,-6.827 6.827,-6.827c3.765,0 6.827,3.062 6.827,6.827c-0.001,3.765 -3.063,6.827 -6.827,6.827Z" style="fill:#cc0199;fill-rule:nonzero;stroke:#cc0199;stroke-width:1px;"/><path d="M40.357,75.088c-7.528,0 -13.653,6.125 -13.653,13.653c0,7.528 6.125,13.653 13.653,13.653c7.528,0 13.653,-6.125 13.653,-13.653c0.001,-7.528 -6.125,-13.653 -13.653,-13.653Zm0,20.48c-3.765,0 -6.827,-3.062 -6.827,-6.827c0,-3.765 3.062,-6.827 6.827,-6.827c3.765,0 6.827,3.062 6.827,6.827c0,3.765 -3.062,6.827 -6.827,6.827Z" style="fill:#cc0199;fill-rule:nonzero;stroke:#cc0199;stroke-width:1px;"/><path d="M74.491,105.808c-7.528,0 -13.653,6.125 -13.653,13.653c0,7.528 6.125,13.653 13.653,13.653c7.528,0 13.653,-6.125 13.653,-13.653c0,-7.528 -6.125,-13.653 -13.653,-13.653Zm0,20.48c-3.765,0 -6.827,-3.062 -6.827,-6.827c0,-3.765 3.062,-6.827 6.827,-6.827c3.765,0 6.827,3.062 6.827,6.827c0,3.765 -3.063,6.827 -6.827,6.827Z" style="fill:#cc0199;fill-rule:nonzero;stroke:#cc0199;stroke-width:1px;"/><path d="M74.491,143.355c-7.528,0 -13.653,6.125 -13.653,13.653c0,7.528 6.125,13.653 13.653,13.653c7.528,0 13.653,-6.125 13.653,-13.653c0,-7.528 -6.125,-13.653 -13.653,-13.653Zm0,20.48c-3.765,0 -6.827,-3.062 -6.827,-6.827c0,-3.765 3.062,-6.827 6.827,-6.827c3.765,0 6.827,3.062 6.827,6.827c-0.001,3.765 -3.063,6.827 -6.827,6.827Z" style="fill:#cc0199;fill-rule:nonzero;stroke:#cc0199;stroke-width:1px;"/><path d="M64.251,51.195c-1.884,0 -3.413,1.529 -3.413,3.413l0,34.133c0,1.884 1.529,3.413 3.413,3.413c1.886,0 3.413,-1.527 3.413,-3.413l0,-34.133c0,-1.884 -1.529,-3.413 -3.413,-3.413Z" style="fill:#cc0199;fill-rule:nonzero;stroke:#cc0199;stroke-width:1px;"/><path d="M74.491,85.328l-23.894,0c-1.884,0 -3.413,1.529 -3.413,3.413c0,1.884 1.529,3.413 3.413,3.413l23.893,0c1.886,0 3.413,-1.529 3.413,-3.413c0.001,-1.884 -1.528,-3.413 -3.412,-3.413Z" style="fill:#cc0199;fill-rule:nonzero;stroke:#cc0199;stroke-width:1px;"/><path d="M74.491,85.328c-1.884,0 -3.413,1.529 -3.413,3.413l0,20.48c0,1.884 1.529,3.413 3.413,3.413c1.886,0 3.413,-1.527 3.413,-3.413l0,-20.48c0,-1.884 -1.529,-3.413 -3.413,-3.413Z" style="fill:#cc0199;fill-rule:nonzero;stroke:#cc0199;stroke-width:1px;"/><path d="M74.491,126.288c-1.884,0 -3.413,1.529 -3.413,3.413l0,17.067c0,1.884 1.529,3.413 3.413,3.413c1.886,0 3.413,-1.527 3.413,-3.413l0,-17.067c0,-1.884 -1.529,-3.413 -3.413,-3.413Z" style="fill:#cc0199;fill-rule:nonzero;stroke:#cc0199;stroke-width:1px;"/></svg>