<svg version="1.1" viewBox="0.000000 0.000000 64.492900 66.764400" xmlns="http://www.w3.org/2000/svg" xmlns:xlink="http://www.w3.org/1999/xlink" overflow="hidden"><defs></defs><g id="Layer_2"><g id="arrow"><path d=" M 27.366800 2.719810 C 28.703400 1.642420 30.358999 1.037700 32.075298 1.000000 C 40.141201 1.000000 46.679901 15.498000 46.679901 33.382198 C 46.679901 51.266399 40.141201 65.764397 32.075298 65.764397 C 24.009399 65.764397 17.470699 51.266399 17.470699 33.382198 C 17.393200 26.658501 18.423100 19.967899 20.519199 13.578900" stroke="#FFFFFF" stroke-width="2.258820" stroke-linecap="butt" stroke-linejoin="round" stroke-opacity="1.000000" fill="none"/><circle cx="24.816500" cy="5.259670" r="3.173020" stroke="#FFFFFF" stroke-width="2.258820" stroke-linecap="butt" stroke-linejoin="round" stroke-opacity="1.000000" fill="none"/><path d=" M 3.254750 44.743198 C 2.992760 46.439800 3.299680 48.175499 4.127640 49.679401 C 8.171920 56.658100 23.994301 55.046101 39.467899 46.078899 C 54.941502 37.111599 64.206802 24.184900 60.162601 17.206200 C 56.118301 10.227500 40.295898 11.839500 24.822300 20.806700 C 18.966000 24.110901 13.693600 28.356701 9.216740 33.373699" stroke="#FFFFFF" stroke-width="2.258820" stroke-linecap="butt" stroke-linejoin="round" stroke-opacity="1.000000" fill="none"/><circle cx="4.173540" cy="41.263200" r="3.173020" stroke="#FFFFFF" stroke-width="2.258820" stroke-linecap="butt" stroke-linejoin="round" stroke-opacity="1.000000" fill="none"/><path d=" M 55.009499 33.395802 C 50.507900 28.354700 45.201801 24.094700 39.306999 20.789101 C 23.811800 11.859300 7.985510 10.285500 3.958100 17.273899 C -0.069310 24.262400 9.227200 37.166698 24.722401 46.096500 C 30.509199 49.520901 36.820301 51.969299 43.402599 53.343300 C 48.576000 54.321899 53.071499 54.173500 56.230202 52.832500 C 57.831001 52.212399 59.181599 51.079899 60.071301 49.611698 C 60.828400 48.243999 61.145199 46.675999 60.978401 45.121700" stroke="#FFFFFF" stroke-width="2.258820" stroke-linecap="butt" stroke-linejoin="round" stroke-opacity="1.000000" fill="none"/><circle cx="60.319300" cy="41.777300" r="3.173020" stroke="#FFFFFF" stroke-width="2.258820" stroke-linecap="butt" stroke-linejoin="round" stroke-opacity="1.000000" fill="none"/><circle cx="32.246400" cy="33.382200" r="5.476930" stroke="#FFFFFF" stroke-width="2.258820" stroke-linecap="butt" stroke-linejoin="round" stroke-opacity="1.000000" fill="none"/></g></g></svg>