<svg version="1.1" viewBox="0.000000 0.000000 85.074000 69.974700" xmlns="http://www.w3.org/2000/svg" xmlns:xlink="http://www.w3.org/1999/xlink" overflow="hidden"><defs></defs><g id="Layer_2"><g id="arrow"><path d=" M 12.522000 61.819000 L 30.410000 61.819000 L 30.410000 68.974998 L 46.508999 54.664001 L 30.410000 40.354000 L 30.410000 47.508999 L 17.888000 47.508999" stroke="#FFFFFF" stroke-width="2.236840" stroke-linecap="butt" stroke-linejoin="round" stroke-opacity="1.000000" fill="none"/><path d=" M 51.875000 45.720001 L 69.764000 45.720001 L 69.764000 52.875000 L 84.073997 40.354000 L 69.764000 27.832001 L 69.764000 34.987000 L 62.608002 34.987000" stroke="#FFFFFF" stroke-width="2.236840" stroke-linecap="butt" stroke-linejoin="round" stroke-opacity="1.000000" fill="none"/><line x1="19.676900" y1="54.664200" x2="7.155230" y2="54.664200" stroke="#FFFFFF" stroke-width="2.236840" stroke-linecap="butt" stroke-linejoin="round" stroke-opacity="1.000000" fill="none"/><line x1="2.393150" y1="54.664200" x2="0.000000" y2="54.664200" stroke="#FFFFFF" stroke-width="2.236840" stroke-linecap="butt" stroke-linejoin="round" stroke-opacity="1.000000" fill="none"/><line x1="33.987300" y1="24.254500" x2="19.676900" y2="24.254500" stroke="#FFFFFF" stroke-width="2.236840" stroke-linecap="butt" stroke-linejoin="round" stroke-opacity="1.000000" fill="none"/><line x1="14.914800" y1="24.254500" x2="12.521700" y2="24.254500" stroke="#FFFFFF" stroke-width="2.236840" stroke-linecap="butt" stroke-linejoin="round" stroke-opacity="1.000000" fill="none"/><line x1="7.759570" y1="24.254500" x2="5.366420" y2="24.254500" stroke="#FFFFFF" stroke-width="2.236840" stroke-linecap="butt" stroke-linejoin="round" stroke-opacity="1.000000" fill="none"/><line x1="76.918700" y1="60.030700" x2="64.397100" y2="60.030700" stroke="#FFFFFF" stroke-width="2.236840" stroke-linecap="butt" stroke-linejoin="round" stroke-opacity="1.000000" fill="none"/><line x1="59.635000" y1="60.030700" x2="57.241800" y2="60.030700" stroke="#FFFFFF" stroke-width="2.236840" stroke-linecap="butt" stroke-linejoin="round" stroke-opacity="1.000000" fill="none"/><line x1="52.479800" y1="60.030700" x2="50.086600" y2="60.030700" stroke="#FFFFFF" stroke-width="2.236840" stroke-linecap="butt" stroke-linejoin="round" stroke-opacity="1.000000" fill="none"/><line x1="21.465700" y1="17.099300" x2="7.155230" y2="17.099300" stroke="#FFFFFF" stroke-width="2.236840" stroke-linecap="butt" stroke-linejoin="round" stroke-opacity="1.000000" fill="none"/><line x1="2.393150" y1="17.099300" x2="0.000000" y2="17.099300" stroke="#FFFFFF" stroke-width="2.236840" stroke-linecap="butt" stroke-linejoin="round" stroke-opacity="1.000000" fill="none"/><path d=" M 26.832001 31.410000 L 44.720001 31.410000 L 44.720001 42.143002 L 66.185997 22.466000 L 44.720001 1.000000 L 44.720001 13.522000 L 26.832001 13.522000" stroke="#FFFFFF" stroke-width="2.236840" stroke-linecap="butt" stroke-linejoin="round" stroke-opacity="1.000000" fill="none"/></g></g></svg>