<svg version="1.1" viewBox="0.000000 0.000000 486.000000 413.000000" xmlns="http://www.w3.org/2000/svg" xmlns:xlink="http://www.w3.org/1999/xlink" stroke-linejoin="round" fill-rule="evenodd" clip-rule="evenodd" overflow="hidden"><g transform="matrix(5.555560,0.000000,0.000000,5.555560,0.000000,0.000000)"><g id="arrow"><path d=" M 78.191002 47.261002 C 83.803001 28.257999 72.947998 8.303000 53.945000 2.691000 C 38.098999 -1.989000 21.106001 4.758000 12.786000 19.033001" stroke="#CC0099" stroke-width="2.230000" stroke-linecap="butt" stroke-opacity="1.000000" fill="none"/><path d=" M 8.752000 29.257999 C 4.406000 48.594002 16.558001 67.793999 35.894001 72.139999 C 50.307999 75.379997 65.235001 69.455002 73.502998 57.213001" stroke="#CC0099" stroke-width="2.230000" stroke-linecap="butt" stroke-opacity="1.000000" fill="none"/><path d=" M 72.699997 39.129002 L 78.151001 47.688999 L 86.710999 42.237999" stroke="#CC0099" stroke-width="2.230000" stroke-linecap="butt" stroke-opacity="1.000000" fill="none"/><path d=" M 0.755000 35.076000 L 8.844000 28.950001 L 14.971000 37.039001" stroke="#CC0099" stroke-width="2.230000" stroke-linecap="butt" stroke-opacity="1.000000" fill="none"/></g><g id="arrow1" transform="matrix(0.680193,0.000000,0.000000,0.703931,19.985100,9.276050)"><path d=" M 29.500000 36.631001 L 29.500000 46.506001 L 39.750000 56.881001 C 41.855000 58.875000 46.625000 62.983002 46.625000 65.749001 C 46.731998 68.405998 44.665001 70.646004 42.007999 70.752998 C 41.922001 70.755997 41.835999 70.757004 41.750000 70.755997 L 5.875000 70.755997 C 3.216000 70.792000 1.032000 68.665001 0.997000 66.007004 C 0.995000 65.920998 0.997000 65.834999 1.000000 65.749001 C 1.000000 62.983002 5.770000 58.875000 7.875000 56.881001 L 18.125000 46.506001 L 18.125000 36.631001" stroke="#CC0099" stroke-width="2.310000" stroke-linecap="butt" stroke-opacity="1.000000" fill="none"/><path d=" M 13.750000 51.256001 L 27.875000 51.256001" stroke="#CC0099" stroke-width="2.310000" stroke-linecap="butt" stroke-opacity="1.000000" fill="none"/><path d=" M 33.326000 30.295000 C 33.326000 29.006001 32.243000 27.959000 30.909000 27.959000 L 16.667000 27.959000 C 15.333000 27.959000 14.250000 29.006001 14.250000 30.295000 C 14.250000 31.584000 15.333000 32.631001 16.667000 32.631001 L 30.909000 32.631001 C 32.243000 32.631001 33.326000 31.584000 33.326000 30.295000 Z" stroke="#CC0099" stroke-width="2.310000" stroke-linecap="butt" stroke-opacity="1.000000" fill="none"/><path d=" M 44.257999 20.899000 C 44.335999 20.582001 44.416000 20.273001 44.499001 19.972000 C 45.730999 15.492000 47.526001 12.670000 49.522999 12.670000 C 53.237999 12.670000 56.250000 22.427000 56.250000 34.463001 C 56.250000 46.499001 53.237999 56.256001 49.522999 56.256001 C 47.563999 56.256001 45.799999 53.541000 44.570000 49.208000" stroke="#CC0099" stroke-width="2.310000" stroke-linecap="butt" stroke-opacity="1.000000" fill="none"/><path d=" M 43.530998 44.375999 C 43.030998 41.096001 42.785000 37.782001 42.797001 34.463001 C 42.786999 31.256001 43.014999 28.052000 43.480999 24.878000" stroke="#CC0099" stroke-width="2.310000" stroke-linecap="butt" stroke-opacity="1.000000" fill="none"/><path d=" M 46.166000 28.634001 C 48.941002 27.025000 51.831001 25.624001 54.813000 24.443001 C 56.028999 23.969000 57.201000 23.563000 58.313999 23.230000 C 58.743000 23.101000 59.162998 22.983999 59.574001 22.877001 C 64.070999 21.709000 67.411003 21.855000 68.407997 23.587000 C 70.262001 26.806000 63.310001 34.285000 52.881001 40.292000 C 46.912998 43.729000 41.098999 45.939999 36.869999 46.598999" stroke="#CC0099" stroke-width="2.310000" stroke-linecap="butt" stroke-opacity="1.000000" fill="none"/><path d=" M 34.459999 37.340000 C 36.973999 34.873001 39.735001 32.669998 42.699001 30.767000" stroke="#CC0099" stroke-width="2.310000" stroke-linecap="butt" stroke-opacity="1.000000" fill="none"/><path d=" M 60.801998 35.067001 C 66.197998 39.424999 69.198997 43.563000 68.003998 45.588001 C 66.296997 48.483002 56.660999 45.964001 46.483002 39.960999" stroke="#CC0099" stroke-width="2.310000" stroke-linecap="butt" stroke-opacity="1.000000" fill="none"/><path d=" M 36.749001 22.889000 C 40.620998 23.570000 46.001999 25.676001 51.627998 28.875999" stroke="#CC0099" stroke-width="2.310000" stroke-linecap="butt" stroke-opacity="1.000000" fill="none"/><circle cx="49.500000" cy="34.551000" r="2.455000" stroke="#CC0099" stroke-width="2.310000" stroke-linecap="butt" stroke-opacity="1.000000" fill="none"/><ellipse cx="27.461000" cy="3.399000" rx="1.961000" ry="2.399000" stroke="#CC0099" stroke-width="2.310000" stroke-linecap="butt" stroke-opacity="1.000000" fill="none"/><ellipse cx="27.461000" cy="21.756000" rx="1.961000" ry="2.399000" stroke="#CC0099" stroke-width="2.310000" stroke-linecap="butt" stroke-opacity="1.000000" fill="none"/><path d=" M 27.458000 14.340000 L 27.458000 10.715000" stroke="#CC0099" stroke-width="2.310000" stroke-linecap="butt" stroke-opacity="1.000000" fill="none"/><ellipse cx="18.336000" cy="17.006000" rx="1.961000" ry="2.399000" stroke="#CC0099" stroke-width="2.310000" stroke-linecap="butt" stroke-opacity="1.000000" fill="none"/><path d=" M 18.333000 8.340000 L 18.333000 4.715000" stroke="#CC0099" stroke-width="2.310000" stroke-linecap="butt" stroke-opacity="1.000000" fill="none"/></g></g></svg>