<svg version="1.1" viewBox="0.000000 0.000000 512.000000 512.000000" xmlns="http://www.w3.org/2000/svg" xmlns:xlink="http://www.w3.org/1999/xlink" id="Capa_1" overflow="hidden"><g><g><path d=" M 228.000000 119.000000 C 233.522995 119.000000 238.000000 114.522003 238.000000 109.000000 L 238.000000 77.000000 C 238.000000 49.430000 215.570007 27.000000 188.000000 27.000000 L 50.000000 27.000000 C 22.430000 27.000000 0.000000 49.430000 0.000000 77.000000 L 0.000000 196.988007 C 0.000000 224.557999 22.430000 246.988007 50.000000 246.988007 L 114.692001 246.988007 C 112.416000 321.694000 84.070999 360.529999 28.233000 365.609985 C 23.082001 366.079010 19.139000 370.397003 19.139000 375.569000 L 19.139000 475.000000 C 19.139000 477.750000 20.271000 480.377991 22.268999 482.266998 C 24.131001 484.026001 26.590000 485.000000 29.138000 485.000000 C 29.325001 485.000000 29.513000 484.994995 29.700001 484.984009 C 98.608002 481.108002 151.210999 457.393005 186.048996 414.497009 C 220.520996 372.050995 238.000000 310.028992 238.000000 230.151993 L 238.000000 194.332993 C 238.000000 188.811005 233.522995 184.332993 228.000000 184.332993 C 222.477005 184.332993 218.000000 188.811005 218.000000 194.332993 L 218.000000 230.151993 C 218.000000 376.795990 159.464996 453.483002 39.139999 464.248993 L 39.139999 384.412994 C 69.551003 379.683014 93.073997 365.527008 109.147003 342.252014 C 126.195999 317.561005 134.841003 282.145996 134.841003 236.988007 C 134.841003 231.466003 130.363998 226.988007 124.841003 226.988007 L 50.000000 226.988007 C 33.458000 226.988007 20.000000 213.529999 20.000000 196.988007 L 20.000000 77.000000 C 20.000000 60.458000 33.458000 47.000000 50.000000 47.000000 L 188.000000 47.000000 C 204.542007 47.000000 218.000000 60.458000 218.000000 77.000000 L 218.000000 109.000000 C 218.000000 114.522003 222.477005 119.000000 228.000000 119.000000 Z" stroke="none" stroke-width="1.000000" stroke-linecap="butt" fill="#5FFF78" fill-opacity="1.000000"/></g></g><g><g><path d=" M 462.000000 27.000000 L 324.000000 27.000000 C 296.429993 27.000000 274.000000 49.430000 274.000000 77.000000 L 274.000000 196.988007 C 274.000000 224.557999 296.429993 246.988007 324.000000 246.988007 L 388.691986 246.988007 C 386.415985 321.694000 358.071014 360.529999 302.233002 365.609985 C 297.083008 366.079010 293.139008 370.397003 293.139008 375.569000 L 293.139008 475.000000 C 293.139008 477.750000 294.270996 480.377991 296.269012 482.266998 C 298.131012 484.027008 300.589996 485.000000 303.138000 485.000000 C 303.325012 485.000000 303.513000 484.994995 303.700012 484.984009 C 372.608002 481.108002 425.210999 457.393005 460.049011 414.497009 C 494.520996 372.052002 512.000000 310.028992 512.000000 230.151993 L 512.000000 77.000000 C 512.000000 49.430000 489.570007 27.000000 462.000000 27.000000 Z M 492.000000 230.151993 C 492.000000 376.795990 433.464996 453.483002 313.139008 464.248993 L 313.139008 384.412994 C 343.550995 379.683014 367.074005 365.527008 383.145996 342.252014 C 400.195007 317.562012 408.839996 282.147003 408.839996 236.988007 C 408.839996 231.466003 404.363007 226.988007 398.839996 226.988007 L 324.000000 226.988007 C 307.458008 226.988007 294.000000 213.529999 294.000000 196.988007 L 294.000000 77.000000 C 294.000000 60.458000 307.458008 47.000000 324.000000 47.000000 L 444.000000 47.000000 L 444.000000 121.033997 C 444.000000 126.556000 448.476990 131.033997 454.000000 131.033997 C 459.523010 131.033997 464.000000 126.556000 464.000000 121.033997 L 464.000000 47.074001 C 479.612000 48.108002 492.000000 61.131001 492.000000 77.000000 L 492.000000 230.151993 Z" stroke="none" stroke-width="1.000000" stroke-linecap="butt" fill="#5FFF78" fill-opacity="1.000000"/></g></g><g><g><path d=" M 454.000000 145.751007 C 448.476990 145.751007 444.000000 150.278000 444.000000 155.800003 C 444.000000 161.322006 448.476990 165.800003 454.000000 165.800003 C 459.522003 165.800003 464.000000 161.322006 464.000000 155.800003 L 464.000000 155.701004 C 464.000000 150.179001 459.523010 145.751007 454.000000 145.751007 Z" stroke="none" stroke-width="1.000000" stroke-linecap="butt" fill="#5FFF78" fill-opacity="1.000000"/></g></g><g><g><path d=" M 228.000000 141.666000 C 222.477005 141.666000 218.000000 146.143997 218.000000 151.666000 L 218.000000 151.875000 C 218.000000 157.397003 222.477005 161.875000 228.000000 161.875000 C 233.522995 161.875000 238.000000 157.397003 238.000000 151.875000 L 238.000000 151.666000 C 238.000000 146.143997 233.522995 141.666000 228.000000 141.666000 Z" stroke="none" stroke-width="1.000000" stroke-linecap="butt" fill="#5FFF78" fill-opacity="1.000000"/></g></g><g></g><g></g><g></g><g></g><g></g><g></g><g></g><g></g><g></g><g></g><g></g><g></g><g></g><g></g><g></g></svg>